<?xml version="1.0" encoding="UTF-8" standalone="no"?>
<!-- Created with Inkscape (http://www.inkscape.org/) -->

<svg
   width="50mm"
   height="50mm"
   viewBox="0 0 50 50"
   version="1.1"
   id="svg8320"
   inkscape:version="1.2.1 (9c6d41e410, 2022-07-14)"
   sodipodi:docname="JS_left.svg"
   xml:space="preserve"
   inkscape:export-filename="..\..\PNGs\Joystick\JS_left.png"
   inkscape:export-xdpi="96"
   inkscape:export-ydpi="96"
   xmlns:inkscape="http://www.inkscape.org/namespaces/inkscape"
   xmlns:sodipodi="http://sodipodi.sourceforge.net/DTD/sodipodi-0.dtd"
   xmlns="http://www.w3.org/2000/svg"
   xmlns:svg="http://www.w3.org/2000/svg"><sodipodi:namedview
     id="namedview8322"
     pagecolor="#ffffff"
     bordercolor="#000000"
     borderopacity="0.25"
     inkscape:showpageshadow="2"
     inkscape:pageopacity="0.0"
     inkscape:pagecheckerboard="0"
     inkscape:deskcolor="#d1d1d1"
     inkscape:document-units="mm"
     showgrid="false"
     inkscape:zoom="2.8472754"
     inkscape:cx="105.18828"
     inkscape:cy="134.86578"
     inkscape:window-width="1920"
     inkscape:window-height="1057"
     inkscape:window-x="1358"
     inkscape:window-y="-8"
     inkscape:window-maximized="1"
     inkscape:current-layer="layer1" /><defs
     id="defs8317"><marker
       style="overflow:visible"
       id="Arrow4"
       refX="-1"
       refY="0"
       orient="auto-start-reverse"
       inkscape:stockid="Arrow4"
       markerWidth="3.1666667"
       markerHeight="3.8"
       viewBox="0 0 5 6"
       inkscape:isstock="true"
       inkscape:collect="always"
       preserveAspectRatio="xMidYMid"><path
         style="fill:context-stroke;fill-rule:evenodd;stroke:none"
         d="m 1,0 -3,3 h -2 l 3,-3 -3,-3 h 2 z"
         id="path1741" /></marker><marker
       style="overflow:visible"
       id="Arrow4-9"
       refX="-1"
       refY="0"
       orient="auto-start-reverse"
       inkscape:stockid="Arrow4"
       markerWidth="3.1666667"
       markerHeight="3.8"
       viewBox="0 0 5 6"
       inkscape:isstock="true"
       inkscape:collect="always"
       preserveAspectRatio="xMidYMid"><path
         style="fill:context-stroke;fill-rule:evenodd;stroke:none"
         d="m 1,0 -3,3 h -2 l 3,-3 -3,-3 h 2 z"
         id="path1741-1" /></marker><marker
       style="overflow:visible"
       id="Arrow4-9-9"
       refX="-1"
       refY="0"
       orient="auto-start-reverse"
       inkscape:stockid="Arrow4"
       markerWidth="3.1666667"
       markerHeight="3.8"
       viewBox="0 0 5 6"
       inkscape:isstock="true"
       inkscape:collect="always"
       preserveAspectRatio="xMidYMid"><path
         style="fill:context-stroke;fill-rule:evenodd;stroke:none"
         d="m 1,0 -3,3 h -2 l 3,-3 -3,-3 h 2 z"
         id="path1741-1-9" /></marker><marker
       style="overflow:visible"
       id="Arrow4-9-9-9"
       refX="-1"
       refY="0"
       orient="auto-start-reverse"
       inkscape:stockid="Arrow4"
       markerWidth="3.1666667"
       markerHeight="3.8"
       viewBox="0 0 5 6"
       inkscape:isstock="true"
       inkscape:collect="always"
       preserveAspectRatio="xMidYMid"><path
         style="fill:context-stroke;fill-rule:evenodd;stroke:none"
         d="m 1,0 -3,3 h -2 l 3,-3 -3,-3 h 2 z"
         id="path1741-1-9-3" /></marker></defs><g
     inkscape:label="Capa 1"
     inkscape:groupmode="layer"
     id="layer1"><circle
       style="fill:#ffffff;stroke:#264653;stroke-width:1.93694;stroke-linecap:square;stroke-linejoin:bevel;stroke-miterlimit:0;paint-order:stroke markers fill;fill-opacity:1"
       id="path8493"
       cx="25"
       cy="25"
       r="24.031528" /><path
       style="fill:#ffffff;fill-opacity:1;stroke:#264653;stroke-width:2;stroke-linecap:square;stroke-linejoin:bevel;stroke-miterlimit:0;stroke-dasharray:none;marker-start:url(#Arrow4);paint-order:markers fill stroke"
       d="M 25,7.5333333 V 14.231128"
       id="path10081"
       sodipodi:nodetypes="cc" /><path
       style="fill:#ffffff;fill-opacity:1;stroke:#264653;stroke-width:2;stroke-linecap:square;stroke-linejoin:bevel;stroke-miterlimit:0;stroke-dasharray:none;marker-start:url(#Arrow4-9);paint-order:markers fill stroke"
       d="M 25,42.697795 V 36"
       id="path10081-6"
       sodipodi:nodetypes="cc" /><path
       style="fill:#ffffff;fill-opacity:1;stroke:#264653;stroke-width:2;stroke-linecap:square;stroke-linejoin:bevel;stroke-miterlimit:0;stroke-dasharray:none;marker-start:url(#Arrow4-9-9);paint-order:markers fill stroke"
       d="M 7.5333333,25 H 14.231128"
       id="path10081-6-7"
       sodipodi:nodetypes="cc" /><path
       style="fill:#000000;fill-opacity:1;stroke:#264653;stroke-width:2;stroke-linecap:square;stroke-linejoin:bevel;stroke-miterlimit:0;stroke-dasharray:none;marker-start:url(#Arrow4-9-9-9);paint-order:markers fill stroke"
       d="M 42.697795,25 H 36"
       id="path10081-6-7-9"
       sodipodi:nodetypes="cc" /><path
       fill="#000000"
       d="m 25.59942,20.154527 c -0.269381,0.0035 -0.553101,0.05384 -0.850717,0.160131 -0.636076,1.166298 -1.440486,2.54945 -2.651003,3.763952 -0.446824,0.4483 -0.827225,0.94763 -1.102405,1.440486 0.02729,0.133098 0.105096,0.245658 0.226048,0.367033 0.231784,0.232626 0.650731,0.455849 1.151179,0.701128 0.976582,0.47856 2.26225,1.062552 3.086524,2.287196 l 4.125059,6.74e-4 c -0.425906,-1.493646 -2.114476,-2.132274 -3.354112,-1.770007 -0.0015,6.33e-4 -0.0031,0.0014 -0.0047,0.002 -0.03395,0.01335 -0.06896,0.024 -0.104738,0.03296 -5.1e-4,1.01e-4 -8.07e-4,5.25e-4 -0.0014,6.32e-4 -0.186828,0.04647 -0.39685,0.03542 -0.614147,-0.0086 -0.522735,-0.105854 -1.112527,-0.4153 -1.293491,-0.963382 -0.603393,-1.827636 0.35109,-3.790141 1.648041,-4.708208 0.48634,-0.344301 1.034506,-0.545045 1.570316,-0.515987 0.0031,1.67e-4 0.0061,4.84e-4 0.0092,6.32e-4 -0.51008,-0.479508 -1.124542,-0.800235 -1.839798,-0.790746 z m 1.723826,1.180847 c -0.405136,2.09e-4 -0.831106,0.160047 -1.236199,0.446782 -1.152255,0.815671 -2.038059,2.636327 -1.501111,4.262776 0.108111,0.327474 0.574609,0.614926 0.997015,0.700495 0.211182,0.04275 0.405242,0.03201 0.50011,-0.006 0.04744,-0.01898 0.06691,-0.0388 0.07579,-0.05402 0.0089,-0.01518 0.01708,-0.03507 0.0052,-0.09225 -0.191465,-0.931331 -0.05784,-1.784135 0.475144,-2.41378 0.497347,-0.587534 1.323245,-0.958637 2.475689,-1.068793 -0.316593,-0.994126 -0.790114,-1.501912 -1.292901,-1.687558 -0.135102,-0.04993 -0.274801,-0.07815 -0.417768,-0.0857 -0.02682,-0.0015 -0.05405,-0.002 -0.08106,-0.002 z m -6.546745,4.624579 c -0.113973,0.26472 -0.192647,0.522018 -0.229949,0.763038 0.15136,0.585363 1.09435,1.168828 1.92086,1.293534 0.03591,-0.12595 0.122976,-0.241968 0.216769,-0.300483 1.075626,0.60822 1.81724,1.280038 2.15083,2.129742 h 4.841348 c 0.0147,-0.202704 0.0093,-0.394571 -0.01318,-0.576591 l -4.30828,-6.32e-4 h -0.108068 l -0.05799,-0.09162 c -0.746573,-1.171887 -1.980664,-1.741329 -2.989656,-2.23581 -0.504496,-0.247219 -0.95248,-0.470989 -1.257287,-0.776913 -0.06279,-0.06305 -0.118464,-0.131264 -0.165403,-0.204265 z"
       id="path11001"
       style="stroke-width:0.0210866;fill:#264653;fill-opacity:1" /></g></svg>
