<?xml version="1.0" encoding="UTF-8" standalone="no"?>
<!-- Created with Inkscape (http://www.inkscape.org/) -->

<svg
   width="50mm"
   height="50mm"
   viewBox="0 0 50 50"
   version="1.1"
   id="svg8320"
   inkscape:version="1.2.1 (9c6d41e410, 2022-07-14)"
   sodipodi:docname="JS_right.svg"
   xml:space="preserve"
   inkscape:export-filename="..\..\PNGs\Joystick\JS_right.png"
   inkscape:export-xdpi="96"
   inkscape:export-ydpi="96"
   xmlns:inkscape="http://www.inkscape.org/namespaces/inkscape"
   xmlns:sodipodi="http://sodipodi.sourceforge.net/DTD/sodipodi-0.dtd"
   xmlns="http://www.w3.org/2000/svg"
   xmlns:svg="http://www.w3.org/2000/svg"><sodipodi:namedview
     id="namedview8322"
     pagecolor="#ffffff"
     bordercolor="#000000"
     borderopacity="0.25"
     inkscape:showpageshadow="2"
     inkscape:pageopacity="0.0"
     inkscape:pagecheckerboard="0"
     inkscape:deskcolor="#d1d1d1"
     inkscape:document-units="mm"
     showgrid="false"
     inkscape:zoom="2.8472754"
     inkscape:cx="108.3492"
     inkscape:cy="125.38303"
     inkscape:window-width="1920"
     inkscape:window-height="1057"
     inkscape:window-x="1358"
     inkscape:window-y="-8"
     inkscape:window-maximized="1"
     inkscape:current-layer="layer1" /><defs
     id="defs8317"><marker
       style="overflow:visible"
       id="Arrow4"
       refX="-1"
       refY="0"
       orient="auto-start-reverse"
       inkscape:stockid="Arrow4"
       markerWidth="3.1666667"
       markerHeight="3.8"
       viewBox="0 0 5 6"
       inkscape:isstock="true"
       inkscape:collect="always"
       preserveAspectRatio="xMidYMid"><path
         style="fill:context-stroke;fill-rule:evenodd;stroke:none"
         d="m 1,0 -3,3 h -2 l 3,-3 -3,-3 h 2 z"
         id="path1741" /></marker><marker
       style="overflow:visible"
       id="Arrow4-9"
       refX="-1"
       refY="0"
       orient="auto-start-reverse"
       inkscape:stockid="Arrow4"
       markerWidth="3.1666667"
       markerHeight="3.8"
       viewBox="0 0 5 6"
       inkscape:isstock="true"
       inkscape:collect="always"
       preserveAspectRatio="xMidYMid"><path
         style="fill:context-stroke;fill-rule:evenodd;stroke:none"
         d="m 1,0 -3,3 h -2 l 3,-3 -3,-3 h 2 z"
         id="path1741-1" /></marker><marker
       style="overflow:visible"
       id="Arrow4-9-9"
       refX="-1"
       refY="0"
       orient="auto-start-reverse"
       inkscape:stockid="Arrow4"
       markerWidth="3.1666667"
       markerHeight="3.8"
       viewBox="0 0 5 6"
       inkscape:isstock="true"
       inkscape:collect="always"
       preserveAspectRatio="xMidYMid"><path
         style="fill:context-stroke;fill-rule:evenodd;stroke:none"
         d="m 1,0 -3,3 h -2 l 3,-3 -3,-3 h 2 z"
         id="path1741-1-9" /></marker><marker
       style="overflow:visible"
       id="Arrow4-9-9-9"
       refX="-1"
       refY="0"
       orient="auto-start-reverse"
       inkscape:stockid="Arrow4"
       markerWidth="3.1666667"
       markerHeight="3.8"
       viewBox="0 0 5 6"
       inkscape:isstock="true"
       inkscape:collect="always"
       preserveAspectRatio="xMidYMid"><path
         style="fill:context-stroke;fill-rule:evenodd;stroke:none"
         d="m 1,0 -3,3 h -2 l 3,-3 -3,-3 h 2 z"
         id="path1741-1-9-3" /></marker></defs><g
     inkscape:label="Capa 1"
     inkscape:groupmode="layer"
     id="layer1"><circle
       style="fill:#ffffff;stroke:#264653;stroke-width:1.93694;stroke-linecap:square;stroke-linejoin:bevel;stroke-miterlimit:0;paint-order:stroke markers fill;fill-opacity:1"
       id="path8493"
       cx="25"
       cy="25"
       r="24.031528" /><path
       style="fill:#ffffff;fill-opacity:1;stroke:#264653;stroke-width:2;stroke-linecap:square;stroke-linejoin:bevel;stroke-miterlimit:0;stroke-dasharray:none;marker-start:url(#Arrow4);paint-order:markers fill stroke"
       d="M 25,7.5333333 V 14.231128"
       id="path10081"
       sodipodi:nodetypes="cc" /><path
       style="fill:#ffffff;fill-opacity:1;stroke:#264653;stroke-width:2;stroke-linecap:square;stroke-linejoin:bevel;stroke-miterlimit:0;stroke-dasharray:none;marker-start:url(#Arrow4-9);paint-order:markers fill stroke"
       d="M 25,42.697795 V 36"
       id="path10081-6"
       sodipodi:nodetypes="cc" /><path
       style="fill:#ffffff;fill-opacity:1;stroke:#264653;stroke-width:2;stroke-linecap:square;stroke-linejoin:bevel;stroke-miterlimit:0;stroke-dasharray:none;marker-start:url(#Arrow4-9-9);paint-order:markers fill stroke"
       d="M 7.5333333,25 H 14.231128"
       id="path10081-6-7"
       sodipodi:nodetypes="cc" /><path
       style="fill:#000000;fill-opacity:1;stroke:#264653;stroke-width:2;stroke-linecap:square;stroke-linejoin:bevel;stroke-miterlimit:0;stroke-dasharray:none;marker-start:url(#Arrow4-9-9-9);paint-order:markers fill stroke"
       d="M 42.697795,25 H 36"
       id="path10081-6-7-9"
       sodipodi:nodetypes="cc" /><g
       style="fill:#264653;fill-opacity:1"
       id="g11585"
       transform="matrix(0.02448542,0,0,0.02448542,18.847295,19.074527)"><path
         d="m 0,226 v 32 c 128,192 384,192 512,0 V 226 C 384,34 128,34 0,226 Z m 256,144 c -70.7,0 -128,-57.3 -128,-128 0,-70.7 57.3,-128 128,-128 70.7,0 128,57.3 128,128 0,70.7 -57.3,128 -128,128 z m 0,-200 c 0,-8.3 1.7,-16.1 4.3,-23.6 -1.5,-0.1 -2.8,-0.4 -4.3,-0.4 -53,0 -96,43 -96,96 0,53 43,96 96,96 53,0 96,-43 96,-96 0,-1.5 -0.4,-2.8 -0.4,-4.3 -7.4,2.6 -15.3,4.3 -23.6,4.3 -39.8,0 -72,-32.2 -72,-72 z"
         id="path11577"
         style="fill:#264653;fill-opacity:1" /></g></g></svg>
