<?xml version="1.0" encoding="UTF-8" standalone="no"?>
<!-- Created with Inkscape (http://www.inkscape.org/) -->

<svg
   width="50mm"
   height="50mm"
   viewBox="0 0 50 50"
   version="1.1"
   id="svg5"
   inkscape:version="1.2.1 (9c6d41e410, 2022-07-14)"
   sodipodi:docname="JS_shoot.svg"
   inkscape:export-filename="..\..\PNGs\Joystick\JS_shoot.png"
   inkscape:export-xdpi="96"
   inkscape:export-ydpi="96"
   xml:space="preserve"
   xmlns:inkscape="http://www.inkscape.org/namespaces/inkscape"
   xmlns:sodipodi="http://sodipodi.sourceforge.net/DTD/sodipodi-0.dtd"
   xmlns="http://www.w3.org/2000/svg"
   xmlns:svg="http://www.w3.org/2000/svg"><sodipodi:namedview
     id="namedview7"
     pagecolor="#ffffff"
     bordercolor="#000000"
     borderopacity="0.25"
     inkscape:showpageshadow="2"
     inkscape:pageopacity="0.0"
     inkscape:pagecheckerboard="0"
     inkscape:deskcolor="#d1d1d1"
     inkscape:document-units="mm"
     showgrid="false"
     inkscape:zoom="2.8472754"
     inkscape:cx="65.325609"
     inkscape:cy="73.403507"
     inkscape:window-width="1920"
     inkscape:window-height="1057"
     inkscape:window-x="1358"
     inkscape:window-y="-8"
     inkscape:window-maximized="1"
     inkscape:current-layer="layer1" /><defs
     id="defs2"><linearGradient
       id="linearGradient5987"
       inkscape:swatch="solid"><stop
         style="stop-color:#264653;stop-opacity:1;"
         offset="0"
         id="stop5985" /></linearGradient></defs><g
     inkscape:label="Capa 1"
     inkscape:groupmode="layer"
     id="layer1"><circle
       style="fill:#e76f51;fill-opacity:1;stroke:#264653;stroke-width:2.015;stroke-linecap:square;stroke-linejoin:bevel;stroke-miterlimit:0;stroke-dasharray:none;stroke-opacity:1;paint-order:stroke markers fill"
       id="path358"
       cx="25"
       cy="25"
       r="23.992321" /><g
       style="fill:#000000"
       id="g2683"
       transform="matrix(0.03517198,0.03679319,-0.03679319,0.03517198,30.42615,1.5821825)"><g
         id="SVGRepo_bgCarrier"
         stroke-width="0" /><g
         id="SVGRepo_iconCarrier"> <g
   id="g2668"> <g
   id="g2666"> <g
   id="g2664"> <path
   d="M 335.738,436.459 V 184.656 c 0,-4.642 -3.752,-8.393 -8.393,-8.393 H 176.263 c -4.642,0 -8.393,3.752 -8.393,8.393 v 251.803 c 0,4.642 3.752,8.393 8.393,8.393 v 8.393 c -4.642,0 -8.393,3.752 -8.393,8.393 v 33.574 c 0,4.642 3.752,8.393 8.393,8.393 h 151.082 c 4.642,0 8.393,-3.752 8.393,-8.393 V 461.64 c 0,-4.642 -3.752,-8.393 -8.393,-8.393 v -8.393 c 4.641,-10e-4 8.393,-3.753 8.393,-8.395 z"
   id="path2660" /> <path
   d="m 184.656,159.478 h 134.295 c 4.642,0 8.393,-3.752 8.393,-8.393 v -8.393 c 0,-55.178 -26.364,-107.889 -70.505,-141.01 -2.988,-2.241 -7.084,-2.241 -10.072,0 -44.141,33.121 -70.505,85.831 -70.505,141.01 v 8.393 c 0.001,4.641 3.752,8.393 8.394,8.393 z"
   id="path2662" /> </g> </g> </g> </g></g><path
       style="fill:#e76f51;fill-opacity:1;stroke:#000000;stroke-width:1.2177;stroke-linecap:square;stroke-linejoin:bevel;stroke-miterlimit:0;paint-order:markers fill stroke"
       d="m 17.117044,27.544799 -6.956906,6.650364"
       id="path3149" /><path
       style="fill:#e76f51;fill-opacity:1;stroke:#000000;stroke-width:1.2177;stroke-linecap:square;stroke-linejoin:bevel;stroke-miterlimit:0;paint-order:markers fill stroke"
       d="m 21.456323,31.730807 -6.956906,6.650364"
       id="path3149-5" /><path
       style="fill:#e76f51;fill-opacity:1;stroke:#000000;stroke-width:1.2177;stroke-linecap:square;stroke-linejoin:bevel;stroke-miterlimit:0;paint-order:markers fill stroke"
       d="m 17.117044,31.730807 -6.956906,6.650364"
       id="path3149-5-7" /></g></svg>
